<svg xmlns="http://www.w3.org/2000/svg" xmlns:xlink="http://www.w3.org/1999/xlink" width="190" zoomAndPan="magnify" viewBox="0 0 142.5 66.75" height="89" preserveAspectRatio="xMidYMid meet" version="1.0"><defs><g/></defs><g fill="#ff5757" fill-opacity="1"><g transform="translate(1.738454, 43.713179)"><g><path d="M 13.8125 0 L 13.8125 -9.796875 C 11.613281 -10.316406 9.703125 -11.21875 8.078125 -12.5 C 6.453125 -13.78125 5.195312 -15.40625 4.3125 -17.375 C 3.425781 -19.34375 2.984375 -21.609375 2.984375 -24.171875 L 2.984375 -35.9375 L 11.390625 -35.9375 L 11.390625 -23.71875 C 11.390625 -22.414062 11.660156 -21.222656 12.203125 -20.140625 C 12.753906 -19.066406 13.535156 -18.210938 14.546875 -17.578125 C 15.554688 -16.941406 16.75 -16.625 18.125 -16.625 C 19.488281 -16.625 20.675781 -16.941406 21.6875 -17.578125 C 22.695312 -18.210938 23.472656 -19.066406 24.015625 -20.140625 C 24.566406 -21.222656 24.84375 -22.414062 24.84375 -23.71875 L 24.84375 -35.9375 L 33.265625 -35.9375 L 33.265625 -24.171875 C 33.265625 -21.609375 32.816406 -19.34375 31.921875 -17.375 C 31.035156 -15.40625 29.769531 -13.769531 28.125 -12.46875 C 26.488281 -11.164062 24.570312 -10.273438 22.375 -9.796875 L 22.375 0 Z M 13.8125 0 "/></g></g></g><g fill="#ff5757" fill-opacity="1"><g transform="translate(34.530188, 43.713179)"><g><path d="M 20.53125 0.671875 C 17.65625 0.671875 15.050781 0.191406 12.71875 -0.765625 C 10.394531 -1.722656 8.394531 -3.054688 6.71875 -4.765625 C 5.039062 -6.484375 3.75 -8.46875 2.84375 -10.71875 C 1.9375 -12.976562 1.484375 -15.410156 1.484375 -18.015625 C 1.484375 -20.617188 1.9375 -23.046875 2.84375 -25.296875 C 3.75 -27.554688 5.03125 -29.535156 6.6875 -31.234375 C 8.351562 -32.929688 10.359375 -34.25 12.703125 -35.1875 C 15.046875 -36.125 17.65625 -36.59375 20.53125 -36.59375 C 23.375 -36.59375 25.96875 -36.125 28.3125 -35.1875 C 30.65625 -34.25 32.65625 -32.929688 34.3125 -31.234375 C 35.96875 -29.535156 37.257812 -27.546875 38.1875 -25.265625 C 39.113281 -22.992188 39.578125 -20.578125 39.578125 -18.015625 C 39.578125 -15.410156 39.113281 -12.976562 38.1875 -10.71875 C 37.257812 -8.46875 35.96875 -6.484375 34.3125 -4.765625 C 32.65625 -3.054688 30.65625 -1.722656 28.3125 -0.765625 C 25.96875 0.191406 23.375 0.671875 20.53125 0.671875 Z M 20.53125 -6.671875 C 22.039062 -6.671875 23.4375 -6.953125 24.71875 -7.515625 C 26 -8.078125 27.097656 -8.875 28.015625 -9.90625 C 28.941406 -10.9375 29.660156 -12.144531 30.171875 -13.53125 C 30.691406 -14.914062 30.953125 -16.410156 30.953125 -18.015625 C 30.953125 -19.617188 30.691406 -21.101562 30.171875 -22.46875 C 29.660156 -23.84375 28.941406 -25.039062 28.015625 -26.0625 C 27.097656 -27.09375 26 -27.890625 24.71875 -28.453125 C 23.4375 -29.023438 22.039062 -29.3125 20.53125 -29.3125 C 18.988281 -29.3125 17.582031 -29.023438 16.3125 -28.453125 C 15.050781 -27.890625 13.945312 -27.09375 13 -26.0625 C 12.0625 -25.039062 11.34375 -23.835938 10.84375 -22.453125 C 10.351562 -21.066406 10.109375 -19.585938 10.109375 -18.015625 C 10.109375 -16.410156 10.351562 -14.914062 10.84375 -13.53125 C 11.34375 -12.144531 12.0625 -10.9375 13 -9.90625 C 13.945312 -8.875 15.050781 -8.078125 16.3125 -7.515625 C 17.582031 -6.953125 18.988281 -6.671875 20.53125 -6.671875 Z M 20.53125 -6.671875 "/></g></g></g><g fill="#ff5757" fill-opacity="1"><g transform="translate(72.094533, 43.713179)"><g><path d="M 18.265625 0.609375 C 15.296875 0.609375 12.65625 0.0078125 10.34375 -1.1875 C 8.03125 -2.382812 6.222656 -4.09375 4.921875 -6.3125 C 3.628906 -8.539062 2.984375 -11.191406 2.984375 -14.265625 L 2.984375 -35.9375 L 11.5 -35.9375 L 11.5 -13.8125 C 11.5 -12.476562 11.769531 -11.269531 12.3125 -10.1875 C 12.863281 -9.113281 13.648438 -8.257812 14.671875 -7.625 C 15.703125 -6.988281 16.898438 -6.671875 18.265625 -6.671875 C 19.671875 -6.671875 20.878906 -6.988281 21.890625 -7.625 C 22.898438 -8.257812 23.675781 -9.113281 24.21875 -10.1875 C 24.769531 -11.269531 25.046875 -12.476562 25.046875 -13.8125 L 25.046875 -35.9375 L 33.5625 -35.9375 L 33.5625 -14.265625 C 33.5625 -11.191406 32.898438 -8.539062 31.578125 -6.3125 C 30.265625 -4.09375 28.460938 -2.382812 26.171875 -1.1875 C 23.878906 0.0078125 21.242188 0.609375 18.265625 0.609375 Z M 18.265625 0.609375 "/></g></g></g><g fill="#ff5757" fill-opacity="1"><g transform="translate(105.142854, 43.713179)"><g><path d="M 3.125 0 L 3.125 -35.9375 L 19.5625 -35.9375 C 21.988281 -35.9375 24.203125 -35.40625 26.203125 -34.34375 C 28.203125 -33.28125 29.789062 -31.804688 30.96875 -29.921875 C 32.15625 -28.035156 32.75 -25.863281 32.75 -23.40625 C 32.75 -21.113281 32.203125 -19.050781 31.109375 -17.21875 C 30.015625 -15.382812 28.578125 -13.90625 26.796875 -12.78125 L 29.671875 -7.90625 C 29.835938 -7.664062 30.03125 -7.476562 30.25 -7.34375 C 30.476562 -7.207031 30.78125 -7.140625 31.15625 -7.140625 L 34.34375 -7.140625 L 34.34375 0 L 29.3125 0 C 27.769531 0 26.363281 -0.363281 25.09375 -1.09375 C 23.832031 -1.832031 22.84375 -2.800781 22.125 -4 L 18.265625 -10.828125 C 18.023438 -10.828125 17.773438 -10.828125 17.515625 -10.828125 C 17.265625 -10.828125 17.003906 -10.828125 16.734375 -10.828125 L 11.75 -10.828125 L 11.75 0 Z M 11.75 -17.96875 L 18.578125 -17.96875 C 19.566406 -17.96875 20.488281 -18.179688 21.34375 -18.609375 C 22.207031 -19.035156 22.882812 -19.648438 23.375 -20.453125 C 23.875 -21.253906 24.125 -22.222656 24.125 -23.359375 C 24.125 -24.484375 23.863281 -25.445312 23.34375 -26.25 C 22.832031 -27.050781 22.15625 -27.664062 21.3125 -28.09375 C 20.476562 -28.53125 19.566406 -28.75 18.578125 -28.75 L 11.75 -28.75 Z M 11.75 -17.96875 "/></g></g></g><g fill="#ff5757" fill-opacity="1"><g transform="translate(4.45479, 58.151621)"><g><path d="M 6.3125 -4.65625 C 6.832031 -4.550781 7.253906 -4.289062 7.578125 -3.875 C 7.898438 -3.46875 8.0625 -3 8.0625 -2.46875 C 8.0625 -1.707031 7.796875 -1.101562 7.265625 -0.65625 C 6.734375 -0.21875 5.988281 0 5.03125 0 L 0.796875 0 L 0.796875 -9.09375 L 4.890625 -9.09375 C 5.816406 -9.09375 6.539062 -8.878906 7.0625 -8.453125 C 7.582031 -8.035156 7.84375 -7.460938 7.84375 -6.734375 C 7.84375 -6.203125 7.703125 -5.757812 7.421875 -5.40625 C 7.140625 -5.050781 6.769531 -4.800781 6.3125 -4.65625 Z M 3.015625 -5.421875 L 4.46875 -5.421875 C 4.832031 -5.421875 5.109375 -5.5 5.296875 -5.65625 C 5.492188 -5.8125 5.59375 -6.046875 5.59375 -6.359375 C 5.59375 -6.671875 5.492188 -6.90625 5.296875 -7.0625 C 5.109375 -7.226562 4.832031 -7.3125 4.46875 -7.3125 L 3.015625 -7.3125 Z M 4.65625 -1.78125 C 5.019531 -1.78125 5.300781 -1.863281 5.5 -2.03125 C 5.707031 -2.207031 5.8125 -2.453125 5.8125 -2.765625 C 5.8125 -3.085938 5.707031 -3.335938 5.5 -3.515625 C 5.289062 -3.703125 5 -3.796875 4.625 -3.796875 L 3.015625 -3.796875 L 3.015625 -1.78125 Z M 4.65625 -1.78125 "/></g></g></g><g fill="#ff5757" fill-opacity="1"><g transform="translate(12.897711, 58.151621)"><g><path d="M 2.984375 -9.09375 L 2.984375 -3.65625 C 2.984375 -3.113281 3.113281 -2.691406 3.375 -2.390625 C 3.644531 -2.097656 4.039062 -1.953125 4.5625 -1.953125 C 5.082031 -1.953125 5.476562 -2.097656 5.75 -2.390625 C 6.03125 -2.691406 6.171875 -3.113281 6.171875 -3.65625 L 6.171875 -9.09375 L 8.375 -9.09375 L 8.375 -3.671875 C 8.375 -2.859375 8.203125 -2.171875 7.859375 -1.609375 C 7.515625 -1.046875 7.050781 -0.617188 6.46875 -0.328125 C 5.882812 -0.046875 5.234375 0.09375 4.515625 0.09375 C 3.804688 0.09375 3.164062 -0.046875 2.59375 -0.328125 C 2.03125 -0.609375 1.582031 -1.03125 1.25 -1.59375 C 0.925781 -2.164062 0.765625 -2.859375 0.765625 -3.671875 L 0.765625 -9.09375 Z M 2.984375 -9.09375 "/></g></g></g><g fill="#ff5757" fill-opacity="1"><g transform="translate(21.936306, 58.151621)"><g><path d="M 4.09375 0.09375 C 3.425781 0.09375 2.828125 -0.015625 2.296875 -0.234375 C 1.773438 -0.453125 1.351562 -0.769531 1.03125 -1.1875 C 0.71875 -1.613281 0.554688 -2.125 0.546875 -2.71875 L 2.90625 -2.71875 C 2.9375 -2.382812 3.050781 -2.128906 3.25 -1.953125 C 3.445312 -1.773438 3.707031 -1.6875 4.03125 -1.6875 C 4.351562 -1.6875 4.609375 -1.757812 4.796875 -1.90625 C 4.992188 -2.0625 5.09375 -2.269531 5.09375 -2.53125 C 5.09375 -2.757812 5.015625 -2.945312 4.859375 -3.09375 C 4.710938 -3.238281 4.53125 -3.359375 4.3125 -3.453125 C 4.09375 -3.546875 3.78125 -3.65625 3.375 -3.78125 C 2.78125 -3.957031 2.296875 -4.132812 1.921875 -4.3125 C 1.554688 -4.5 1.238281 -4.769531 0.96875 -5.125 C 0.695312 -5.476562 0.5625 -5.941406 0.5625 -6.515625 C 0.5625 -7.359375 0.867188 -8.019531 1.484375 -8.5 C 2.097656 -8.976562 2.898438 -9.21875 3.890625 -9.21875 C 4.890625 -9.21875 5.695312 -8.976562 6.3125 -8.5 C 6.925781 -8.019531 7.253906 -7.351562 7.296875 -6.5 L 4.890625 -6.5 C 4.878906 -6.789062 4.773438 -7.019531 4.578125 -7.1875 C 4.378906 -7.363281 4.125 -7.453125 3.8125 -7.453125 C 3.539062 -7.453125 3.320312 -7.378906 3.15625 -7.234375 C 3 -7.085938 2.921875 -6.882812 2.921875 -6.625 C 2.921875 -6.320312 3.054688 -6.085938 3.328125 -5.921875 C 3.609375 -5.765625 4.039062 -5.59375 4.625 -5.40625 C 5.207031 -5.207031 5.679688 -5.015625 6.046875 -4.828125 C 6.421875 -4.648438 6.738281 -4.382812 7 -4.03125 C 7.269531 -3.6875 7.40625 -3.242188 7.40625 -2.703125 C 7.40625 -2.191406 7.273438 -1.722656 7.015625 -1.296875 C 6.753906 -0.867188 6.367188 -0.53125 5.859375 -0.28125 C 5.359375 -0.03125 4.769531 0.09375 4.09375 0.09375 Z M 4.09375 0.09375 "/></g></g></g><g fill="#ff5757" fill-opacity="1"><g transform="translate(29.809457, 58.151621)"><g><path d="M 3.015625 -9.09375 L 3.015625 0 L 0.796875 0 L 0.796875 -9.09375 Z M 3.015625 -9.09375 "/></g></g></g><g fill="#ff5757" fill-opacity="1"><g transform="translate(33.538834, 58.151621)"><g><path d="M 8.9375 0 L 6.71875 0 L 3.015625 -5.609375 L 3.015625 0 L 0.796875 0 L 0.796875 -9.09375 L 3.015625 -9.09375 L 6.71875 -3.453125 L 6.71875 -9.09375 L 8.9375 -9.09375 Z M 8.9375 0 "/></g></g></g><g fill="#ff5757" fill-opacity="1"><g transform="translate(43.186042, 58.151621)"><g><path d="M 3.015625 -7.3125 L 3.015625 -5.484375 L 5.984375 -5.484375 L 5.984375 -3.765625 L 3.015625 -3.765625 L 3.015625 -1.78125 L 6.375 -1.78125 L 6.375 0 L 0.796875 0 L 0.796875 -9.09375 L 6.375 -9.09375 L 6.375 -7.3125 Z M 3.015625 -7.3125 "/></g></g></g><g fill="#ff5757" fill-opacity="1"><g transform="translate(50.10095, 58.151621)"><g><path d="M 4.09375 0.09375 C 3.425781 0.09375 2.828125 -0.015625 2.296875 -0.234375 C 1.773438 -0.453125 1.351562 -0.769531 1.03125 -1.1875 C 0.71875 -1.613281 0.554688 -2.125 0.546875 -2.71875 L 2.90625 -2.71875 C 2.9375 -2.382812 3.050781 -2.128906 3.25 -1.953125 C 3.445312 -1.773438 3.707031 -1.6875 4.03125 -1.6875 C 4.351562 -1.6875 4.609375 -1.757812 4.796875 -1.90625 C 4.992188 -2.0625 5.09375 -2.269531 5.09375 -2.53125 C 5.09375 -2.757812 5.015625 -2.945312 4.859375 -3.09375 C 4.710938 -3.238281 4.53125 -3.359375 4.3125 -3.453125 C 4.09375 -3.546875 3.78125 -3.65625 3.375 -3.78125 C 2.78125 -3.957031 2.296875 -4.132812 1.921875 -4.3125 C 1.554688 -4.5 1.238281 -4.769531 0.96875 -5.125 C 0.695312 -5.476562 0.5625 -5.941406 0.5625 -6.515625 C 0.5625 -7.359375 0.867188 -8.019531 1.484375 -8.5 C 2.097656 -8.976562 2.898438 -9.21875 3.890625 -9.21875 C 4.890625 -9.21875 5.695312 -8.976562 6.3125 -8.5 C 6.925781 -8.019531 7.253906 -7.351562 7.296875 -6.5 L 4.890625 -6.5 C 4.878906 -6.789062 4.773438 -7.019531 4.578125 -7.1875 C 4.378906 -7.363281 4.125 -7.453125 3.8125 -7.453125 C 3.539062 -7.453125 3.320312 -7.378906 3.15625 -7.234375 C 3 -7.085938 2.921875 -6.882812 2.921875 -6.625 C 2.921875 -6.320312 3.054688 -6.085938 3.328125 -5.921875 C 3.609375 -5.765625 4.039062 -5.59375 4.625 -5.40625 C 5.207031 -5.207031 5.679688 -5.015625 6.046875 -4.828125 C 6.421875 -4.648438 6.738281 -4.382812 7 -4.03125 C 7.269531 -3.6875 7.40625 -3.242188 7.40625 -2.703125 C 7.40625 -2.191406 7.273438 -1.722656 7.015625 -1.296875 C 6.753906 -0.867188 6.367188 -0.53125 5.859375 -0.28125 C 5.359375 -0.03125 4.769531 0.09375 4.09375 0.09375 Z M 4.09375 0.09375 "/></g></g></g><g fill="#ff5757" fill-opacity="1"><g transform="translate(57.974104, 58.151621)"><g><path d="M 4.09375 0.09375 C 3.425781 0.09375 2.828125 -0.015625 2.296875 -0.234375 C 1.773438 -0.453125 1.351562 -0.769531 1.03125 -1.1875 C 0.71875 -1.613281 0.554688 -2.125 0.546875 -2.71875 L 2.90625 -2.71875 C 2.9375 -2.382812 3.050781 -2.128906 3.25 -1.953125 C 3.445312 -1.773438 3.707031 -1.6875 4.03125 -1.6875 C 4.351562 -1.6875 4.609375 -1.757812 4.796875 -1.90625 C 4.992188 -2.0625 5.09375 -2.269531 5.09375 -2.53125 C 5.09375 -2.757812 5.015625 -2.945312 4.859375 -3.09375 C 4.710938 -3.238281 4.53125 -3.359375 4.3125 -3.453125 C 4.09375 -3.546875 3.78125 -3.65625 3.375 -3.78125 C 2.78125 -3.957031 2.296875 -4.132812 1.921875 -4.3125 C 1.554688 -4.5 1.238281 -4.769531 0.96875 -5.125 C 0.695312 -5.476562 0.5625 -5.941406 0.5625 -6.515625 C 0.5625 -7.359375 0.867188 -8.019531 1.484375 -8.5 C 2.097656 -8.976562 2.898438 -9.21875 3.890625 -9.21875 C 4.890625 -9.21875 5.695312 -8.976562 6.3125 -8.5 C 6.925781 -8.019531 7.253906 -7.351562 7.296875 -6.5 L 4.890625 -6.5 C 4.878906 -6.789062 4.773438 -7.019531 4.578125 -7.1875 C 4.378906 -7.363281 4.125 -7.453125 3.8125 -7.453125 C 3.539062 -7.453125 3.320312 -7.378906 3.15625 -7.234375 C 3 -7.085938 2.921875 -6.882812 2.921875 -6.625 C 2.921875 -6.320312 3.054688 -6.085938 3.328125 -5.921875 C 3.609375 -5.765625 4.039062 -5.59375 4.625 -5.40625 C 5.207031 -5.207031 5.679688 -5.015625 6.046875 -4.828125 C 6.421875 -4.648438 6.738281 -4.382812 7 -4.03125 C 7.269531 -3.6875 7.40625 -3.242188 7.40625 -2.703125 C 7.40625 -2.191406 7.273438 -1.722656 7.015625 -1.296875 C 6.753906 -0.867188 6.367188 -0.53125 5.859375 -0.28125 C 5.359375 -0.03125 4.769531 0.09375 4.09375 0.09375 Z M 4.09375 0.09375 "/></g></g></g><g fill="#ff5757" fill-opacity="1"><g transform="translate(65.847253, 58.151621)"><g/></g></g><g fill="#ff5757" fill-opacity="1"><g transform="translate(68.501837, 58.151621)"><g><path d="M 3.015625 -9.09375 L 3.015625 0 L 0.796875 0 L 0.796875 -9.09375 Z M 3.015625 -9.09375 "/></g></g></g><g fill="#ff5757" fill-opacity="1"><g transform="translate(72.23121, 58.151621)"><g><path d="M 8.9375 0 L 6.71875 0 L 3.015625 -5.609375 L 3.015625 0 L 0.796875 0 L 0.796875 -9.09375 L 3.015625 -9.09375 L 6.71875 -3.453125 L 6.71875 -9.09375 L 8.9375 -9.09375 Z M 8.9375 0 "/></g></g></g><g fill="#ff5757" fill-opacity="1"><g transform="translate(81.878414, 58.151621)"><g/></g></g><g fill="#ff5757" fill-opacity="1"><g transform="translate(84.532998, 58.151621)"><g><path d="M 11.09375 -9.09375 L 11.09375 0 L 8.890625 0 L 8.890625 -5.453125 L 6.859375 0 L 5.0625 0 L 3.015625 -5.46875 L 3.015625 0 L 0.796875 0 L 0.796875 -9.09375 L 3.421875 -9.09375 L 5.96875 -2.796875 L 8.5 -9.09375 Z M 11.09375 -9.09375 "/></g></g></g><g fill="#ff5757" fill-opacity="1"><g transform="translate(96.329788, 58.151621)"><g><path d="M 5.109375 0.09375 C 4.253906 0.09375 3.46875 -0.101562 2.75 -0.5 C 2.039062 -0.894531 1.472656 -1.445312 1.046875 -2.15625 C 0.628906 -2.875 0.421875 -3.679688 0.421875 -4.578125 C 0.421875 -5.460938 0.628906 -6.257812 1.046875 -6.96875 C 1.472656 -7.675781 2.039062 -8.226562 2.75 -8.625 C 3.46875 -9.019531 4.253906 -9.21875 5.109375 -9.21875 C 5.960938 -9.21875 6.742188 -9.019531 7.453125 -8.625 C 8.160156 -8.226562 8.71875 -7.675781 9.125 -6.96875 C 9.539062 -6.257812 9.75 -5.460938 9.75 -4.578125 C 9.75 -3.679688 9.539062 -2.875 9.125 -2.15625 C 8.71875 -1.445312 8.160156 -0.894531 7.453125 -0.5 C 6.742188 -0.101562 5.960938 0.09375 5.109375 0.09375 Z M 5.109375 -1.9375 C 5.828125 -1.9375 6.40625 -2.175781 6.84375 -2.65625 C 7.28125 -3.132812 7.5 -3.773438 7.5 -4.578125 C 7.5 -5.378906 7.28125 -6.019531 6.84375 -6.5 C 6.40625 -6.976562 5.828125 -7.21875 5.109375 -7.21875 C 4.367188 -7.21875 3.78125 -6.976562 3.34375 -6.5 C 2.90625 -6.03125 2.6875 -5.390625 2.6875 -4.578125 C 2.6875 -3.773438 2.90625 -3.132812 3.34375 -2.65625 C 3.78125 -2.175781 4.367188 -1.9375 5.109375 -1.9375 Z M 5.109375 -1.9375 "/></g></g></g><g fill="#ff5757" fill-opacity="1"><g transform="translate(106.417272, 58.151621)"><g><path d="M 7.34375 -9.09375 L 7.34375 -7.3125 L 4.9375 -7.3125 L 4.9375 0 L 2.71875 0 L 2.71875 -7.3125 L 0.3125 -7.3125 L 0.3125 -9.09375 Z M 7.34375 -9.09375 "/></g></g></g><g fill="#ff5757" fill-opacity="1"><g transform="translate(113.979639, 58.151621)"><g><path d="M 3.015625 -9.09375 L 3.015625 0 L 0.796875 0 L 0.796875 -9.09375 Z M 3.015625 -9.09375 "/></g></g></g><g fill="#ff5757" fill-opacity="1"><g transform="translate(117.709012, 58.151621)"><g><path d="M 5.109375 0.09375 C 4.253906 0.09375 3.46875 -0.101562 2.75 -0.5 C 2.039062 -0.894531 1.472656 -1.445312 1.046875 -2.15625 C 0.628906 -2.875 0.421875 -3.679688 0.421875 -4.578125 C 0.421875 -5.460938 0.628906 -6.257812 1.046875 -6.96875 C 1.472656 -7.675781 2.039062 -8.226562 2.75 -8.625 C 3.46875 -9.019531 4.253906 -9.21875 5.109375 -9.21875 C 5.960938 -9.21875 6.742188 -9.019531 7.453125 -8.625 C 8.160156 -8.226562 8.71875 -7.675781 9.125 -6.96875 C 9.539062 -6.257812 9.75 -5.460938 9.75 -4.578125 C 9.75 -3.679688 9.539062 -2.875 9.125 -2.15625 C 8.71875 -1.445312 8.160156 -0.894531 7.453125 -0.5 C 6.742188 -0.101562 5.960938 0.09375 5.109375 0.09375 Z M 5.109375 -1.9375 C 5.828125 -1.9375 6.40625 -2.175781 6.84375 -2.65625 C 7.28125 -3.132812 7.5 -3.773438 7.5 -4.578125 C 7.5 -5.378906 7.28125 -6.019531 6.84375 -6.5 C 6.40625 -6.976562 5.828125 -7.21875 5.109375 -7.21875 C 4.367188 -7.21875 3.78125 -6.976562 3.34375 -6.5 C 2.90625 -6.03125 2.6875 -5.390625 2.6875 -4.578125 C 2.6875 -3.773438 2.90625 -3.132812 3.34375 -2.65625 C 3.78125 -2.175781 4.367188 -1.9375 5.109375 -1.9375 Z M 5.109375 -1.9375 "/></g></g></g><g fill="#ff5757" fill-opacity="1"><g transform="translate(127.796495, 58.151621)"><g><path d="M 8.9375 0 L 6.71875 0 L 3.015625 -5.609375 L 3.015625 0 L 0.796875 0 L 0.796875 -9.09375 L 3.015625 -9.09375 L 6.71875 -3.453125 L 6.71875 -9.09375 L 8.9375 -9.09375 Z M 8.9375 0 "/></g></g></g></svg>